<svg id="visual" viewBox="0 0 960 600" width="960" height="600" xmlns="http://www.w3.org/2000/svg" xmlns:xlink="http://www.w3.org/1999/xlink" version="1.1"><rect x="0" y="0" width="960" height="600" fill="#212121"></rect><defs><linearGradient id="grad1_0" x1="37.5%" y1="0%" x2="100%" y2="100%"><stop offset="17.999999999999996%" stop-color="#212121" stop-opacity="1"></stop><stop offset="82%" stop-color="#212121" stop-opacity="1"></stop></linearGradient></defs><defs><linearGradient id="grad2_0" x1="0%" y1="0%" x2="62.5%" y2="100%"><stop offset="17.999999999999996%" stop-color="#212121" stop-opacity="1"></stop><stop offset="82%" stop-color="#212121" stop-opacity="1"></stop></linearGradient></defs><g transform="translate(960, 0)"><path d="M0 509.4C-69 504.3 -138 499.1 -195 470.7C-251.9 442.2 -296.7 390.4 -341.5 341.5C-386.4 292.6 -431.2 246.6 -459.2 190.2C-487.2 133.8 -498.3 66.9 -509.4 0L0 0Z" fill="#41B883"></path></g><g transform="translate(0, 600)"><path d="M0 -509.4C52.5 -470.3 105 -431.1 171.1 -413C237.1 -394.8 316.6 -397.7 360.2 -360.2C403.9 -322.8 411.6 -245.1 430.5 -178.3C449.4 -111.6 479.4 -55.8 509.4 0L0 0Z" fill="#41B883"></path></g></svg>