<svg id="visual" viewBox="0 0 960 600" width="960" height="600" xmlns="http://www.w3.org/2000/svg" xmlns:xlink="http://www.w3.org/1999/xlink" version="1.1"><rect x="0" y="0" width="960" height="600" fill="#212121"></rect><defs><linearGradient id="grad1_0" x1="37.5%" y1="0%" x2="100%" y2="100%"><stop offset="17.999999999999996%" stop-color="#41b883" stop-opacity="1"></stop><stop offset="82%" stop-color="#41b883" stop-opacity="1"></stop></linearGradient></defs><defs><linearGradient id="grad1_1" x1="37.5%" y1="0%" x2="100%" y2="100%"><stop offset="17.999999999999996%" stop-color="#41b883" stop-opacity="1"></stop><stop offset="82%" stop-color="#212121" stop-opacity="1"></stop></linearGradient></defs><defs><linearGradient id="grad2_0" x1="0%" y1="0%" x2="62.5%" y2="100%"><stop offset="17.999999999999996%" stop-color="#41b883" stop-opacity="1"></stop><stop offset="82%" stop-color="#41b883" stop-opacity="1"></stop></linearGradient></defs><defs><linearGradient id="grad2_1" x1="0%" y1="0%" x2="62.5%" y2="100%"><stop offset="17.999999999999996%" stop-color="#212121" stop-opacity="1"></stop><stop offset="82%" stop-color="#41b883" stop-opacity="1"></stop></linearGradient></defs><g transform="translate(960, 0)"><path d="M0 424.5C-60.8 424.9 -121.5 425.3 -162.5 392.2C-203.4 359.1 -224.4 292.5 -244.7 244.7C-264.9 196.8 -284.3 167.8 -314.1 130.1C-344 92.5 -384.2 46.2 -424.5 0L0 0Z" fill="#37684f"></path><path d="M0 212.3C-30.4 212.5 -60.8 212.7 -81.2 196.1C-101.7 179.6 -112.2 146.2 -122.3 122.3C-132.4 98.4 -142.1 83.9 -157.1 65.1C-172 46.2 -192.1 23.1 -212.3 0L0 0Z" fill="#41b883"></path></g><g transform="translate(0, 600)"><path d="M0 -424.5C41.7 -386.3 83.4 -348.1 138.1 -333.5C192.9 -318.9 260.7 -327.9 300.2 -300.2C339.7 -272.5 350.8 -208.1 366.8 -151.9C382.8 -95.8 403.7 -47.9 424.5 0L0 0Z" fill="#37684f"></path><path d="M0 -212.3C20.8 -193.2 41.7 -174.1 69.1 -166.8C96.5 -159.5 130.4 -163.9 150.1 -150.1C169.8 -136.2 175.4 -104 183.4 -76C191.4 -47.9 201.8 -23.9 212.3 0L0 0Z" fill="#41b883"></path></g></svg>